<svg fill="#000000" width="40px" height="40px" viewBox="-10.32 -10.32 44.64 44.64" id="facebook-circle" data-name="Flat Color" xmlns="http://www.w3.org/2000/svg" class="icon flat-color" stroke="#000000" stroke-width="0"><g id="SVGRepo_bgCarrier" stroke-width="0"><rect x="-10.32" y="-10.32" width="44.64" height="44.64" rx="22.32" fill="#4e4d4d1c" strokewidth="0"></rect></g><g id="SVGRepo_tracerCarrier" stroke-linecap="round" stroke-linejoin="round"></g><g id="SVGRepo_iconCarrier"><circle id="primary" cx="12" cy="12" r="10" style="fill: #ffffff;"></circle><path id="secondary" d="M17,9a1,1,0,0,1-1,1H14a1,1,0,0,0-1,1v2h2a1,1,0,0,1,0,2H13v7c-.33,0-.66.05-1,.05s-.67,0-1-.05V15H9a1,1,0,0,1,0-2h2V11a3,3,0,0,1,3-3h2A1,1,0,0,1,17,9Z" style="fill: #000000;"></path></g></svg>