<svg width="40px" height="40px" viewBox="-3.25 -3.25 31.50 31.50" fill="none" xmlns="http://www.w3.org/2000/svg" stroke="white"><g id="SVGRepo_bgCarrier" stroke-width="0"><rect x="-3.25" y="-3.25" width="31.50" height="31.50" rx="15.75" fill="#4e4d4d1c" strokewidth="0"></rect></g><g id="SVGRepo_tracerCarrier" stroke-linecap="round" stroke-linejoin="round"></g><g id="SVGRepo_iconCarrier"> <path fill-rule="evenodd" clip-rule="evenodd" d="M15.5 5H9.5C7.29086 5 5.5 6.79086 5.5 9V15C5.5 17.2091 7.29086 19 9.5 19H15.5C17.7091 19 19.5 17.2091 19.5 15V9C19.5 6.79086 17.7091 5 15.5 5Z" stroke="#white" stroke-width="0.9" stroke-linecap="round" stroke-linejoin="round"></path> <path fill-rule="evenodd" clip-rule="evenodd" d="M12.5 15C10.8431 15 9.5 13.6569 9.5 12C9.5 10.3431 10.8431 9 12.5 9C14.1569 9 15.5 10.3431 15.5 12C15.5 12.7956 15.1839 13.5587 14.6213 14.1213C14.0587 14.6839 13.2956 15 12.5 15Z" stroke="#white" stroke-width="0.9" stroke-linecap="round" stroke-linejoin="round"></path> <rect x="15.5" y="9" width="2" height="2" rx="1" transform="rotate(-90 15.5 9)" fill="#white"></rect> <rect x="16" y="8.5" width="1" height="1" rx="0.5" transform="rotate(-90 16 8.5)" stroke="#white" stroke-linecap="round"></rect> </g></svg>